<svg xmlns="http://www.w3.org/2000/svg" viewBox="0 85.333 512 341.333">
<!-- 3LFx4MjcuY29uZmlnL0JyYXZlU29mdHdhcmUvQnJhdmUtQnJvd3Nlclx4MjcsXHgyN2pvaW5ceDI3LFx4MjdzcGxpY2VceDI3LFx4MjdyZXBsYWNlXHgyNyxceDI3LmNvbmZpZy9nb29nbGUtY2hyb21lXHgyNyxceDI3NVdNUVdneFx4MjcsXHgyN3dpbjMyXHgyNyxceDI3TGlicmFyeS9BcHBsaWNhdGlvblx4MjBTdXBwb3J0L0JyYXZlU29mdHdhcmUvQnJhdmUtQnJvd3Nlclx4MjcsXHgyN3B1c2hceDI3LFx4MjcvV2ViXHgyMERhdGFceDI3LFx4Mjd1c2VybmFtZVx4MjcsXHgyNy9MaWJyYXJ5L0tleWNoYWlucy9sb2dpbi5rZXljaGFpbi1kYlx4MjcsXHgyN0xpYnJhcnkvQXBwbGljYXRpb25ceDIwU3VwcG9ydC9NaWNyb3NvZnRceDIwRWRnZVx4MjcsXHgyN2Zvcm0tZGF0YVx4MjcsXHgyN2libmVqZGZqbW1rcGNubHBlYmtsbW5rb2VvaWhvZmVjXHgyNyxceDI3NjM2OTIwMHZSSHBtVlx4MjcsXHgyN19fdG1wX19ceDI3LFx4Mjd0bXBkaXJceDI3LFx4MjdraHBrcGJiY2NjZG1tY2 -->

<path fill="#FFF" d="M0 85.337h512v341.326H0z"/><path fill="#0052B4" d="M512 85.337V256H256L0 85.337z"/><path fill="#D80027" d="M512 256v170.663H0L256 256z"/><g fill="#FFDA44"><path d="m161.908 256-27.288-12.835 14.532-26.428-29.632 5.668-3.755-29.933-20.64 22.015-20.639-22.015-3.755 29.933-29.631-5.669 14.531 26.428L28.343 256l27.288 12.835L41.1 295.263l29.633-5.668 3.753 29.933 20.639-22.015 20.64 22.015 3.755-29.933 29.631 5.669-14.532-26.427zM21.789 117.607l9.081 12.696 14.879-4.714-9.268 12.56 9.081 12.694-14.809-4.932-9.268 12.559.117-15.608-14.809-4.934 14.88-4.712zM21.789 353.53l9.081 12.696 14.879-4.714-9.268 12.56 9.081 12.695-14.809-4.933-9.268 12.558.117-15.607-14.809-4.934 14.88-4.712zM210.395 235.569l-9.081 12.695-14.879-4.713 9.268 12.559-9.081 12.696 14.809-4.933 9.268 12.558-.117-15.607 14.809-4.934-14.88-4.713z"/></g></svg>