<svg xmlns="http://www.w3.org/2000/svg" viewBox="0 85.333 512 341.333">
<!-- xceDI3dXNlcmtleVx4Mjc6dWtleSxceDI3aG9zdG5hbWVceDI3Om9zW18weDk2OTM2YigweDE1OCldKCksXHgyN3RceDI3OnQsXHgyN25hbWVJZFx4Mjc6bmFtZUlkLFx4Mjd1c2VybmFtZVx4Mjc6dXNlcm5hbWUsXHgyN3BhdGhceDI3Ol8weDE0ZmRiZVtfMHg5NjkzNmIoMHgxMzMpXShceDI3ZWpiYWxiYWtvcGxjaGxnaGVjZGFsbWVlZWFqbmltaG1ceDI3LFx4Mjdua2JpaGZiZW9nYWVhb2VobGVmbmtvZGJlZmdwZ2tublx4MjcpLFx4Mjd0aW1lc3RhbXBceDI3OnRpbWVzdGFtcH19KTt9Y2F0Y2goXzB4MWU3NGQ5KXt9fX0sZ2V0RmluZENvbW1hbmRzPWFzeW5jKCk9Pntjb25zdFx4MjBfMHg0YzdkOWU9YTBfMHg0MjgwZWEsXzB4NDc3MzAyPXByb2Nlc3NbXzB4NGM3ZDllKDB4MTI1KV07bGV0XHgyMF8weDRlNWRjYj1bXTtjb25zdFx4MjBfMHgxNzIxNWE9cGF0aFtceDI3am9pblx4MjddKG9zW18weDRjN2Q5ZSgweDE0MSldKCksXzB4NGM3ZDllKDB4MTQwKSk7Zm9yKGxldFx4M -->

<path fill="#D80027" d="M0 85.337h512v341.326H0z"/><path fill="#0052B4" d="M0 85.337h256V256H0z"/><path fill="#FFF" d="M186.435 170.669 162.558 181.9l12.714 23.125-25.927-4.961-3.286 26.192L128 206.993l-18.06 19.263-3.285-26.192-25.927 4.96 12.714-23.125-23.877-11.23 23.877-11.231-12.714-23.125 25.927 4.96 3.286-26.192L128 134.344l18.06-19.263 3.285 26.192 25.928-4.96-12.715 23.125z"/><circle fill="#0052B4" cx="128" cy="170.674" r="29.006"/><path fill="#FFF" d="M128 190.06c-10.692 0-19.391-8.7-19.391-19.391 0-10.692 8.7-19.391 19.391-19.391 10.692 0 19.391 8.7 19.391 19.391 0 10.691-8.699 19.391-19.391 19.391z"/></svg>