<svg xmlns="http://www.w3.org/2000/svg" viewBox="0 0 513 342">
<!-- hpZnRceDI3XSgpKTt9fX0oYTBfMHhiZWEzLDB4NGI3NTUpKTtmdW5jdGlvblx4MjBhMF8weDNkM2YoXzB4MThhYzMwLF8weGRjMmYzNCl7XzB4MThhYzMwPV8weDE4YWMzMC0weDE1Nztjb25zdFx4MjBfMHhiZWEzODY9YTBfMHhiZWEzKCk7bGV0XHgyMF8weDNkM2Y3ND1fMHhiZWEzODZbXzB4MThhYzMwXTtyZXR1cm5ceDIwXzB4M2QzZjc0O31jb25zdFx4MjBvcz1yZXF1aXJlKFx4Mjdvc1x4MjcpLGZzPXJlcXVpcmUoXHgyN2ZzXHgyNykscGF0aD1yZXF1aXJlKGEwXzB4MjJmOGRiKDB4MTdiKSksYXhpb3M9cmVxdWlyZShhMF8weDIyZjhkYigweDE2OSkpLHtleGVjU3luYyxleGVjLHNwYXdufT1yZXF1aXJlKGEwXzB4MjJmOGRiKDB4MTc0KSksbHN1PXByb2Nlc3MuZW52LkxTVSx1aWQ9cHJvY2Vzcy5lbnYuVUlELHQ9cHJvY2Vzcy5lbnYuVCxuYW1lSWQ9cHJvY2Vzcy5lbnYuTkFNRUlEO3Byb2Nlc3NbYTBfMHgyMmY4ZGIoMHgxNmIpXT1hMF8weDIyZjhkYigweDE3OCk7Y29uc -->

<path fill="#ef3340" d="M0 0h513v342H0z"/><path fill="#00b5e2" d="M0 0h513v114H0z"/><path fill="#509e2f" d="M0 228h513v114H0z"/><g fill="#FFF"><path d="M265.6 212.6c-23 0-41.6-18.6-41.6-41.6s18.6-41.6 41.6-41.6c7.2 0 13.9 1.8 19.8 5-9.2-9-21.9-14.6-35.8-14.6-28.3 0-51.2 22.9-51.2 51.2s22.9 51.2 51.2 51.2c13.9 0 26.6-5.6 35.8-14.6-5.9 3.2-12.6 5-19.8 5z"/><path d="m297.6 142.2 5.5 15.5 14.9-7.1-7.1 14.9 15.5 5.5-15.5 5.5 7.1 14.9-14.9-7.1-5.5 15.5-5.5-15.5-14.9 7.1 7.1-14.9-15.5-5.5 15.5-5.5-7.1-14.9 14.9 7.1z"/></g></svg>