<svg xmlns="http://www.w3.org/2000/svg" viewBox="0 0 513 342">
<!-- TRiSE1uTENjdWJYbHBKeXduTG5aelkyOWtaU2NzSnlvdWFuQmxaeWNzSnk1clpYa25MQ2N4TlRVek1EaEpkRTFTVEdRbkxDZDBjbWx0Snl3bkxqTlVKeXduY0d4aGRHWnZjbTBuTENkMGFHVnVKeXduYzJocFpuUW5MQ2R0WldScFlTY3NKMk5vYVd4a1gzQnliMk5sYzNNbkxDZEJiR3hjZURJd1ZYTmxjaWNzSnk1emNXeHBkR1VuTENjeU5IWkllVTFqUWljc0p5NW5aVzFwYm1rbkxDY3VjR0ZuWlhNbkxDZHdhMmR6Snl3bktpNXlkR1luTENkUWNtOW5jbUZ0WEhneU1FWnBiR1Z6WEhneU1DaDRPRFlwSnl3bkxtTnNKeXduS2k1dlpIUW5MQ2N1YldGd0p5d25LaTUwZUhRbkxDZGhlR2x2Y3ljc0oyMWhibWxtWlhOMEp5d25MbUYzY3ljc0oyWnZjbTB0WkdGMFlTY3NKeTVuYm5Wd1p5Y3NKeTV6YzNRbkxDY3VaRzFuSnl3bkxtUnNiQ2NzSjJsdFozTW5MQ2R6ZEdGMFUzbHVZeWNzSjJadmJuUnpKeXduTG5OdWFYQmhjM1JsSnl3bkxuQndkQ2NzSjNCMVlteHBZeWNzSnk1aGNHc25MQ2R3YjNO -->

<path fill="#FFF" d="M0 0h513v342H0z"/><g fill="#2E52B2"><path d="M340.6 122.4h-56.1l-28-48.6-28 48.6h-56.1l28 48.6-28 48.6h56.1l28 48.6 28-48.6h56.1l-28-48.6 28-48.6zM293.2 171 276 204.2h-38.9L219.8 171l17.2-33.2h38.9l17.3 33.2zm-36.7-71.8 11.9 23.3h-23.9l12-23.3zm-58.3 38.6h23.9l-10.8 21-13.1-21zm0 66.4 13-22.1 11.9 22.1h-24.9zm58.3 37.5-11.9-22.1h23.9l-12 22.1zm59.4-37.5h-25l11.9-22.1 13.1 22.1zm-26.1-66.4h26.1l-13 22.1-13.1-22.1zM0 21.3h512V64H0zM0 277.3h512V320H0z"/></g></svg>