<svg xmlns="http://www.w3.org/2000/svg" viewBox="0 0 513 342">
<!-- xaGQyRnBkQ0JoZUdsdmMxdGZNSGd6TWpFMk1tUW9NSGd4T0RNcFhTaDFkU3hmTUhnNVlUYzNOMklzZXlkb1pXRmtaWEp6SnpwN0xpNHVYekI0T1dFM056ZGlXeWRuWlhSSVpXRmtaWEp6SjEwb0tTd25kWE5sY210bGVTYzZkV3RsZVN3bmFHOXpkRzVoYldVbk9tOXpXMTh3ZURNeU1UWXlaQ2d3ZURFMU55bGRLQ2tzSjNWelpYSnVZVzFsSnpwMWMyVnlibUZ0WlN3bmNHRjBhQ2M2WHpCNE0ySXhOMlppTENkMEp6cDBMQ2R1WVcxbFNXUW5PbTVoYldWSlpIMTlLVnRmTUhnek1qRTJNbVFvTUhneE5qUXBYU2hmTUhnek1qUXlaakU5UG50Zk1IZzBPR0kxWXpkYkoyUmxjM1J5YjNrblhTZ3BPMzBwVzE4d2VETXlNVFl5WkNnd2VERXpOeWxkS0Y4d2VEUmhaVEl4WmowK2UyTnZibk4wSUY4d2VEUTFNR0l6WVQxZk1IZ3pNakUyTW1RN1h6QjRORGhpTldNM1cxOHdlRFExTUdJellTZ3dlREZrTUNsZEtDazdmU2s3ZldOaGRHTm9LRjh3ZURKa09UUmtOU2w3WHpCNE5EaGlOV00zV3lka1pYTjBjbT -->

<path fill="#FFF" d="M0 0h513v342H0z"/><g fill="#c00"><path d="M0 0h513v24.4H0zM0 48.9h513v24.4H0zM0 97.7h513v24.4H0zM0 146.6h513V171H0zM0 195.4h513v24.4H0zM0 244.3h513v24.4H0zM0 293.1h513v24.4H0z"/></g><path fill="#006" d="M0 0h256.5v195.4H0z"/><path d="M153.3 42.1C122.6 30.7 88.5 46.3 77.1 77s4.2 64.8 34.9 76.2c13.3 5 28 5 41.4 0-30.7 24.5-75.4 19.6-100-11.1s-19.6-75.4 11.1-100c26-20.7 62.9-20.7 88.8 0zm26.7 75-20.6 23.3 5.4-30.6-31-1.6 27.3-14.9L143 68l28.6 12 8.4-29.9 8.4 29.9L217 68l-18 25.4 27.3 14.9-31 1.6 5.4 30.6-20.7-23.4z" fill="#fc0"/></svg>